<svg id="Capa_1" data-name="Capa 1" xmlns="http://www.w3.org/2000/svg" viewBox="0 0 985.27 187.92"><path d="M149.08,147.39v19.16H88.86V89.48H148.2v19.15H109.55V118h36.9v19.16h-36.9v10.24Z" transform="translate(-88.86 -88.04)"/><path d="M233,128c0,23.57-17.41,38.54-40.86,38.54H160.68V89.48h31.49C215.62,89.48,233,104.34,233,128Zm-21.58,0c0-11.78-7.82-19.38-19.28-19.38H181.39v38.76h10.78C203.63,147.39,211.45,139.79,211.45,128Z" transform="translate(-88.86 -88.04)"/><path d="M243,131.42V89.48h20.7v42.05c0,11.9,3.52,16.41,12.88,16.41s13-4.4,13-16.41v-42h20.7v41.94c0,21-6.94,36.56-33.69,36.56C250.25,168,243,152.9,243,131.42Z" transform="translate(-88.86 -88.04)"/><path d="M370.2,152.12H340.79l-5.06,14.43H314.14l29.19-77.07h24.33l29.18,77.07H375.25ZM363.47,133l-7.92-22.69-8,22.69Z" transform="translate(-88.86 -88.04)"/><path d="M433.66,141.77H427v24.78h-20.7V89.48H442c17.73,0,28.51,10.67,28.51,26.09,0,11.34-5.83,20-15.85,24l18.61,27H449.07ZM427,108.63v14h14.3c5.07,0,7.72-2.43,7.72-6.94s-2.65-7.05-7.72-7.05Z" transform="translate(-88.86 -88.04)"/><path d="M555,128c0,23.57-17.4,38.54-40.85,38.54H482.69V89.48h31.49C537.63,89.48,555,104.34,555,128Zm-21.58,0c0-11.78-7.81-19.38-19.27-19.38H503.39v38.76h10.79C525.64,147.39,533.45,139.79,533.45,128Z" transform="translate(-88.86 -88.04)"/><path d="M562.79,128c0-23.56,17.28-40,40.74-40s40.84,16.3,40.84,40S627,168,603.53,168,562.79,151.58,562.79,128Zm60,0c0-11.78-7.81-19.93-19.26-19.93s-19.16,8.15-19.16,19.93,7.7,19.93,19.16,19.93S622.79,139.79,622.79,128Z" transform="translate(-88.86 -88.04)"/><path d="M760.83,89.48,733,166.55H708.64L680.77,89.48h21.59l18.5,55.16,18.39-55.16Z" transform="translate(-88.86 -88.04)"/><path d="M810.3,152.12H780.9l-5.06,14.43H754.25l29.19-77.07h24.33L837,166.55H815.36ZM803.58,133l-7.92-22.69-8,22.69Z" transform="translate(-88.86 -88.04)"/><path d="M873.77,141.77h-6.72v24.78h-20.7V89.48h35.79c17.72,0,28.51,10.67,28.51,26.09,0,11.34-5.83,20-15.86,24l18.62,27H889.18Zm-6.72-33.14v14h14.31c5.07,0,7.71-2.43,7.71-6.94s-2.64-7.05-7.71-7.05Z" transform="translate(-88.86 -88.04)"/><path d="M973.9,152.12H944.49l-5.06,14.43H917.84L947,89.48h24.33l29.18,77.07H979ZM967.17,133l-7.92-22.69-8,22.69Z" transform="translate(-88.86 -88.04)"/><path d="M1006.64,157.19l9.58-16.63c6.16,4.85,18.16,8.7,26,8.7,5.51,0,8.7-1.87,8.7-5.39,0-3.09-2.31-3.75-10.24-5.73-22.9-5.72-31.71-8.59-31.71-23.34,0-21.59,18.72-26.76,33.69-26.76a54.35,54.35,0,0,1,29.51,8.26l-9.8,17.07a42.68,42.68,0,0,0-21.47-6.5c-6.39,0-9.14,2.31-9.14,5.29,0,2.75,3.08,3.63,11.67,5.5,12,2.65,30.73,6.72,30.73,24.67,0,16.4-13.88,25.65-32.71,25.65C1026.34,168,1012,161.38,1006.64,157.19Z" transform="translate(-88.86 -88.04)"/><path d="M496,275h-9.56v-42.3L471.79,269H461.21l-14.69-36.39V275H437V220.53h14.23l15.31,38.25,15.32-38.25H496Z" transform="translate(-88.86 -88.04)"/><path d="M506.81,247.74c0-16.64,12.05-28.22,28.38-28.22s28.37,11.58,28.37,28.22S551.52,276,535.19,276,506.81,264.38,506.81,247.74Zm46.73,0c0-11.2-7.47-18.9-18.35-18.9s-18.35,7.7-18.35,18.9,7.46,18.89,18.35,18.89S553.54,258.93,553.54,247.74Z" transform="translate(-88.86 -88.04)"/><path d="M611,229.55H593.38V275h-9.73v-45.4H566.09v-9H611Z" transform="translate(-88.86 -88.04)"/><path d="M613.46,247.74c0-16.64,12-28.22,28.38-28.22s28.37,11.58,28.37,28.22S658.16,276,641.84,276,613.46,264.38,613.46,247.74Zm46.72,0c0-11.2-7.46-18.9-18.34-18.9s-18.36,7.7-18.36,18.9,7.47,18.89,18.36,18.89S660.18,258.93,660.18,247.74Z" transform="translate(-88.86 -88.04)"/><path d="M677.55,269l4.67-8.16A33.64,33.64,0,0,0,701,266.94c6.54,0,11-2.49,11-7.23,0-5.21-5.52-6-11.81-7.15-16.33-3.35-21-7-21-15.47,0-13.84,12.28-17.57,22.47-17.57a36.57,36.57,0,0,1,19.43,5.36L716.5,233a28.8,28.8,0,0,0-15.31-4.43c-7.85,0-11.66,3-11.66,7.55,0,3.89,3,5.59,12.28,7.15,7.23,1.24,20.6,3.65,20.6,16,0,10.11-8.63,16.72-21.69,16.72C690.77,276,681.36,271.76,677.55,269Z" transform="translate(-88.86 -88.04)"/><path d="M355.74,235.37H120q-13.76,1.83-21.37,9.18l-9.79,15.56H361q13.75-1.83,21.37-9.19l9.78-15.55Z" transform="translate(-88.86 -88.04)"/><path d="M804.07,235.37h238.54q13.92,1.83,21.63,9.18l9.9,15.56H798.77q-13.9-1.83-21.62-9.18l-9.9-15.56Z" transform="translate(-88.86 -88.04)"/></svg>