<svg id="Capa_1" data-name="Capa 1" xmlns="http://www.w3.org/2000/svg" viewBox="0 0 663.86 663.86"><defs><style>.cls-1{fill:#e50c0c;}.cls-2{fill:#fff;}.cls-3{fill:#ff0;}</style></defs><circle class="cls-1" cx="331.93" cy="331.93" r="331.93"/><path d="M358.63,52.13C175.31,52.13,26.7,200.74,26.7,384.07S175.31,716,358.63,716,690.56,567.39,690.56,384.07,542,52.13,358.63,52.13Zm0,644c-172.37,0-312.1-139.74-312.1-312.1S186.26,72,358.63,72s312.1,139.74,312.1,312.11S531,696.17,358.63,696.17Z" transform="translate(-26.7 -52.13)"/><path class="cls-2" d="M622.25,259.81c-.55-1.19-2.09-1.77-4.65-1.77H575.54c-3.64,0-6.12,1.17-7.4,3.53L475.38,408.2a4,4,0,0,1-3.53,1.9h-1.62c-1.91,0-3.19-.62-3.84-1.9L372.34,261.57a8.26,8.26,0,0,0-2.74-2.71A9.72,9.72,0,0,0,365,258H184.65q-24.42,0-41.43,3.95t-27.75,12.53a49.45,49.45,0,0,0-15.75,22.22q-5,13.61-5,33.25v46.87q0,19.62,5,33.38a49.36,49.36,0,0,0,15.75,22.35q10.74,8.6,27.75,12.4t41.43,3.82H325.88q7.39,0,7.39-6V416.93q0-6-7.39-6H185.59a99,99,0,0,1-20.69-1.77,29.66,29.66,0,0,1-13.17-6,21.94,21.94,0,0,1-6.9-11.44,70.61,70.61,0,0,1-1.93-17.86v-4.63H324.28q7.05,0,7.06-6V341.7q0-6-7.06-6H142.9V333a70.53,70.53,0,0,1,1.93-17.85,22,22,0,0,1,6.9-11.45,29.65,29.65,0,0,1,13.17-6,98.94,98.94,0,0,1,20.69-1.78H340.91l86,132.17q8,12.54,16.19,16.63t20.72,4.09h18.6a37.91,37.91,0,0,0,18-4.09q7.68-4.08,15.73-16.63l105.28-163.8C622.51,262.47,622.77,261,622.25,259.81Z" transform="translate(-26.7 -52.13)"/><path class="cls-3" d="M314,509.56h-5V487.47l-7.68,19H295.8l-7.67-19v22.09h-5V481.14h7.43l8,20,8-20H314Z" transform="translate(-26.7 -52.13)"/><path class="cls-3" d="M319.62,495.35c0-8.69,6.29-14.74,14.82-14.74s14.82,6.05,14.82,14.74-6.29,14.74-14.82,14.74S319.62,504,319.62,495.35Zm24.4,0c0-5.85-3.9-9.87-9.58-9.87s-9.59,4-9.59,9.87,3.9,9.87,9.59,9.87S344,501.2,344,495.35Z" transform="translate(-26.7 -52.13)"/><path class="cls-3" d="M374.05,485.85h-9.22v23.71h-5.07V485.85h-9.18v-4.71h23.47Z" transform="translate(-26.7 -52.13)"/><path class="cls-3" d="M375.32,495.35c0-8.69,6.3-14.74,14.83-14.74S405,486.66,405,495.35s-6.3,14.74-14.82,14.74S375.32,504,375.32,495.35Zm24.41,0c0-5.85-3.9-9.87-9.58-9.87s-9.59,4-9.59,9.87,3.9,9.87,9.59,9.87S399.73,501.2,399.73,495.35Z" transform="translate(-26.7 -52.13)"/><path class="cls-3" d="M408.8,506.44l2.44-4.27a17.6,17.6,0,0,0,9.79,3.21c3.41,0,5.76-1.3,5.76-3.78,0-2.72-2.88-3.12-6.17-3.73-8.53-1.75-11-3.66-11-8.08,0-7.23,6.41-9.18,11.73-9.18a19.21,19.21,0,0,1,10.16,2.8l-2.4,4.22a15.08,15.08,0,0,0-8-2.31c-4.1,0-6.09,1.54-6.09,3.94,0,2,1.54,2.92,6.41,3.74,3.78.64,10.77,1.9,10.77,8.36,0,5.28-4.51,8.73-11.34,8.73A22.82,22.82,0,0,1,408.8,506.44Z" transform="translate(-26.7 -52.13)"/><path class="cls-2" d="M240.7,488.89H117.58q-7.18,1-11.17,4.8l-5.11,8.12H243.44q7.19-1,11.16-4.8l5.11-8.12Z" transform="translate(-26.7 -52.13)"/><path class="cls-2" d="M474.89,488.89h124.6q7.28,1,11.3,4.8l5.17,8.12H472.12q-7.26-1-11.29-4.79l-5.17-8.13Z" transform="translate(-26.7 -52.13)"/></svg>